<svg xmlns="http://www.w3.org/2000/svg" viewBox="0 0 120 120" width="120" height="120">
  <!-- Unique enquiry / question-themed logo: a stylized magnifying glass + speech bubble + dot -->
  <defs>
    <linearGradient id="g1" x1="0" y1="0" x2="1" y2="1">
      <stop offset="0%" stop-color="#6EE7B7"/>
      <stop offset="100%" stop-color="#3B82F6"/>
    </linearGradient>
  </defs>
  <rect width="120" height="120" rx="20" fill="#0F172A" />
  <!-- Speech bubble shape -->
  <path d="M30 38c0-6.6 5.4-12 12-12h16c6.6 0 12 5.4 12 12v8c0 6.6-5.4 12-12 12H54l-8 8v-8H42c-6.6 0-12-5.4-12-12v-8z" fill="url(#g1)" opacity="0.95" />
  <!-- Magnifying glass handle + ring overlay -->
  <g transform="translate(68,68) rotate(-30)">
    <circle cx="0" cy="0" r="10" fill="none" stroke="#fff" stroke-width="3" opacity="0.95" />
    <rect x="8" y="8" width="18" height="4" rx="2" fill="#fff" opacity="0.95" />
  </g>
  <!-- Question dot inside bubble -->
  <circle cx="50" cy="46" r="3" fill="#071043" />
  <!-- Question curve -->
  <path d="M46 40c1.8-3 6-5 10-3" stroke="#071043" stroke-width="3" stroke-linecap="round" fill="none" />
</svg>
